<svg width="28" height="26" viewBox="0 0 28 26" fill="none" xmlns="http://www.w3.org/2000/svg">
<path d="M19.4199 25.7266C18.7038 25.7266 18.1631 25.5404 17.7979 25.168C17.4326 24.8027 17.2142 24.2334 17.1426 23.46L16.0146 11.7617C15.986 11.4681 16.0505 11.2282 16.208 11.042C16.3727 10.8558 16.5983 10.7627 16.8848 10.7627H26.918C27.2116 10.7627 27.4372 10.8558 27.5947 11.042C27.7594 11.221 27.8275 11.4609 27.7988 11.7617L26.6709 23.46C26.5921 24.2334 26.3701 24.8027 26.0049 25.168C25.6396 25.5404 25.1025 25.7266 24.3936 25.7266H19.4199ZM19.4844 24.0508H24.3291C24.7445 24.0508 24.9736 23.8324 25.0166 23.3955L26.0586 12.4385H17.7549L18.7861 23.3955C18.8363 23.8324 19.069 24.0508 19.4844 24.0508ZM21.2031 11.3105L21.2891 10.2148C21.3392 9.6849 21.4609 9.24447 21.6543 8.89355C21.8477 8.53548 22.152 8.20605 22.5674 7.90527L26.0264 5.40234C26.2412 5.24479 26.4453 5.19108 26.6387 5.24121C26.8392 5.28418 26.9967 5.38444 27.1113 5.54199C27.2331 5.69954 27.2868 5.87858 27.2725 6.0791C27.2581 6.27246 27.1471 6.44076 26.9395 6.58398L23.3516 9.16211C23.151 9.30534 23.0042 9.46289 22.9111 9.63477C22.8252 9.80664 22.7715 10.0286 22.75 10.3008L22.6855 11.3105H21.2031ZM4.01562 23.9004C2.92708 23.9004 2.1071 23.6283 1.55566 23.084C1.01139 22.5469 0.739258 21.7412 0.739258 20.667V9.40918C0.739258 9.03678 0.767904 8.74674 0.825195 8.53906C0.889648 8.32422 1.01139 8.09863 1.19043 7.8623L3.23145 5.14453V3.10352C3.23145 2.3444 3.44629 1.76074 3.87598 1.35254C4.31283 0.944336 4.93587 0.740234 5.74512 0.740234H14.79C15.5993 0.740234 16.2188 0.944336 16.6484 1.35254C17.0853 1.76074 17.3037 2.3444 17.3037 3.10352V5.14453L19.3555 7.8623C19.5202 8.08431 19.6348 8.29557 19.6992 8.49609C19.7637 8.69661 19.7959 8.96159 19.7959 9.29102H18.0557C18.0557 9.15495 18.0449 9.04753 18.0234 8.96875C18.002 8.88281 17.9554 8.79329 17.8838 8.7002L15.7891 5.92871C15.7103 5.82129 15.653 5.71745 15.6172 5.61719C15.5885 5.51693 15.5742 5.39876 15.5742 5.2627V3.33984C15.5742 2.75977 15.3092 2.46973 14.7793 2.46973H5.7666C5.22949 2.46973 4.96094 2.75977 4.96094 3.33984V5.2627C4.96094 5.39876 4.94303 5.51693 4.90723 5.61719C4.87858 5.71745 4.82487 5.82129 4.74609 5.92871L2.65137 8.7002C2.57259 8.80762 2.52246 8.91504 2.50098 9.02246C2.47949 9.12988 2.46875 9.28743 2.46875 9.49512V20.5811C2.46875 21.641 2.99154 22.1709 4.03711 22.1709H15.5527L15.6816 23.5996C15.6888 23.6497 15.6924 23.6999 15.6924 23.75C15.6995 23.8001 15.7067 23.8503 15.7139 23.9004H4.01562ZM7.35645 5.52051C7.17025 5.52051 7.00911 5.45247 6.87305 5.31641C6.73698 5.18034 6.66895 5.01562 6.66895 4.82227C6.66895 4.62891 6.73698 4.46419 6.87305 4.32812C7.00911 4.1849 7.17025 4.11328 7.35645 4.11328H13.1465C13.3327 4.11328 13.4938 4.1849 13.6299 4.32812C13.766 4.46419 13.834 4.62891 13.834 4.82227C13.834 5.01562 13.766 5.18034 13.6299 5.31641C13.4938 5.45247 13.3327 5.52051 13.1465 5.52051H7.35645Z" fill="#E31E39"/>
</svg>
