<svg width="27" height="24" viewBox="0 0 27 24" fill="none" xmlns="http://www.w3.org/2000/svg">
<path d="M10.4502 22.4277V15.4883C10.4502 15.2448 10.5254 15.0479 10.6758 14.8975C10.8262 14.7471 11.0267 14.6719 11.2773 14.6719H15.8643C16.1149 14.6719 16.3118 14.7471 16.4551 14.8975C16.6055 15.0479 16.6807 15.2448 16.6807 15.4883V22.4277H10.4502ZM1.66309 12.416C1.37663 12.416 1.15104 12.3301 0.986328 12.1582C0.821615 11.9792 0.739258 11.7786 0.739258 11.5566C0.739258 11.2773 0.853841 11.0446 1.08301 10.8584L12.2764 1.45898C12.6774 1.11523 13.1071 0.943359 13.5654 0.943359C14.0238 0.943359 14.4535 1.11523 14.8545 1.45898L26.0479 10.8584C26.277 11.0446 26.3916 11.2773 26.3916 11.5566C26.3916 11.7786 26.3092 11.9792 26.1445 12.1582C25.987 12.3301 25.7614 12.416 25.4678 12.416C25.3174 12.416 25.1777 12.3802 25.0488 12.3086C24.9271 12.237 24.8125 12.1582 24.7051 12.0723L13.9414 3.03809C13.8268 2.93783 13.7015 2.8877 13.5654 2.8877C13.4294 2.8877 13.304 2.93783 13.1895 3.03809L2.43652 12.0723C2.32194 12.1582 2.2002 12.237 2.07129 12.3086C1.94954 12.3802 1.81348 12.416 1.66309 12.416ZM20.5586 6.71191V4.14453C20.5586 3.9082 20.6302 3.72201 20.7734 3.58594C20.9167 3.44271 21.1029 3.37109 21.332 3.37109H22.4814C22.7178 3.37109 22.904 3.44271 23.04 3.58594C23.1833 3.72201 23.2549 3.9082 23.2549 4.14453V8.98926L20.5586 6.71191ZM6.30371 23.5342C5.53743 23.5342 4.93945 23.3265 4.50977 22.9111C4.08724 22.5029 3.87598 21.9193 3.87598 21.1602V9.25781L5.60547 8.09766V20.7305C5.60547 21.0814 5.69499 21.3464 5.87402 21.5254C6.06022 21.7116 6.3252 21.8047 6.66895 21.8047H20.4727C20.8164 21.8047 21.0778 21.7116 21.2568 21.5254C21.4359 21.3464 21.5254 21.0814 21.5254 20.7305V8.08691L23.2549 9.25781V21.1602C23.2549 21.9121 23.0436 22.4958 22.6211 22.9111C22.1986 23.3265 21.6042 23.5342 20.8379 23.5342H6.30371Z" fill="#E31E39"/>
</svg>
