<svg width="24" height="24" viewBox="0 0 24 24" fill="none" xmlns="http://www.w3.org/2000/svg">
<path d="M11.332 23.7275C10.9167 23.7275 10.5586 23.6094 10.2578 23.373C9.95703 23.1439 9.76367 22.8288 9.67773 22.4277L9.20508 20.4189L8.86133 20.3008L7.12109 21.375C6.77018 21.5898 6.40495 21.6722 6.02539 21.6221C5.64583 21.5791 5.30924 21.4108 5.01562 21.1172L3.52246 19.624C3.22168 19.3232 3.04622 18.9867 2.99609 18.6143C2.95312 18.2347 3.04264 17.873 3.26465 17.5293L4.34961 15.7891L4.23145 15.4668L2.22266 14.9941C1.82878 14.9082 1.51367 14.7148 1.27734 14.4141C1.04102 14.1061 0.922852 13.748 0.922852 13.3398V11.2129C0.922852 10.8047 1.03743 10.4502 1.2666 10.1494C1.50293 9.84863 1.82161 9.65169 2.22266 9.55859L4.20996 9.0752L4.33887 8.73145L3.25391 6.99121C3.0319 6.64746 2.94238 6.28939 2.98535 5.91699C3.03548 5.53743 3.21094 5.19727 3.51172 4.89648L5.00488 3.39258C5.2985 3.10612 5.63151 2.93783 6.00391 2.8877C6.38346 2.83757 6.7487 2.91992 7.09961 3.13477L8.83984 4.20898L9.20508 4.06934L9.67773 2.06055C9.76367 1.66667 9.95703 1.35156 10.2578 1.11523C10.5586 0.878906 10.9167 0.760742 11.332 0.760742H13.502C13.9173 0.760742 14.2718 0.878906 14.5654 1.11523C14.8662 1.35156 15.0632 1.66667 15.1562 2.06055L15.6182 4.06934L15.9834 4.20898L17.7344 3.13477C18.0781 2.91992 18.4398 2.83757 18.8193 2.8877C19.1989 2.93783 19.5319 3.10612 19.8184 3.39258L21.3223 4.89648C21.623 5.19727 21.7949 5.53743 21.8379 5.91699C21.8809 6.28939 21.7949 6.64746 21.5801 6.99121L20.4844 8.73145L20.624 9.0752L22.6113 9.55859C23.0052 9.65169 23.3203 9.84863 23.5566 10.1494C23.793 10.4502 23.9111 10.8047 23.9111 11.2129V13.3398C23.9111 13.748 23.793 14.1061 23.5566 14.4141C23.3203 14.7148 23.0052 14.9082 22.6113 14.9941L20.6025 15.4668L20.4736 15.7891L21.5693 17.5293C21.7842 17.873 21.8665 18.2347 21.8164 18.6143C21.7734 18.9867 21.6051 19.3232 21.3115 19.624L19.8076 21.1172C19.514 21.4108 19.1774 21.5791 18.7979 21.6221C18.4183 21.6722 18.0566 21.5898 17.7129 21.375L15.9619 20.3008L15.6182 20.4189L15.1562 22.4277C15.0632 22.8288 14.8662 23.1439 14.5654 23.373C14.2718 23.6094 13.9173 23.7275 13.502 23.7275H11.332ZM11.5039 22.0518H13.3301C13.5091 22.0518 13.6094 21.9694 13.6309 21.8047L14.2861 19.1406C14.6156 19.0618 14.9271 18.9616 15.2207 18.8398C15.5143 18.7109 15.7757 18.5749 16.0049 18.4316L18.3467 19.8711C18.4971 19.9714 18.6331 19.9535 18.7549 19.8174L20.0117 18.5498C20.1335 18.4424 20.1478 18.3099 20.0547 18.1523L18.6152 15.832C18.7441 15.6029 18.8695 15.3415 18.9912 15.0479C19.1201 14.7542 19.2275 14.4427 19.3135 14.1133L21.9883 13.4795C22.153 13.4508 22.2354 13.347 22.2354 13.168V11.374C22.2354 11.2021 22.153 11.0983 21.9883 11.0625L19.3242 10.418C19.2383 10.0671 19.1273 9.74121 18.9912 9.44043C18.8551 9.13965 18.737 8.889 18.6367 8.68848L20.0654 6.36816C20.1657 6.21061 20.1549 6.07096 20.0332 5.94922L18.7656 4.70312C18.6367 4.58854 18.4971 4.57064 18.3467 4.64941L16.0156 6.06738C15.7793 5.93848 15.5143 5.81315 15.2207 5.69141C14.9342 5.5625 14.6227 5.45508 14.2861 5.36914L13.6309 2.68359C13.6094 2.51888 13.5091 2.43652 13.3301 2.43652H11.5039C11.3249 2.43652 11.221 2.51888 11.1924 2.68359L10.5586 5.34766C10.2363 5.43359 9.91764 5.54102 9.60254 5.66992C9.2946 5.79883 9.02604 5.92773 8.79688 6.05664L6.47656 4.64941C6.32617 4.57064 6.1901 4.58854 6.06836 4.70312L4.79004 5.94922C4.67546 6.07096 4.66471 6.21061 4.75781 6.36816L6.18652 8.68848C6.09342 8.889 5.97526 9.13965 5.83203 9.44043C5.69596 9.74121 5.58496 10.0671 5.49902 10.418L2.8457 11.0625C2.68099 11.0983 2.59863 11.2021 2.59863 11.374V13.168C2.59863 13.347 2.68099 13.4508 2.8457 13.4795L5.50977 14.1133C5.5957 14.4427 5.70312 14.7542 5.83203 15.0479C5.96094 15.3415 6.08626 15.6029 6.20801 15.832L4.76855 18.1523C4.68262 18.3099 4.69694 18.4424 4.81152 18.5498L6.0791 19.8174C6.20085 19.9535 6.33333 19.9714 6.47656 19.8711L8.81836 18.4316C9.04753 18.5749 9.30892 18.7109 9.60254 18.8398C9.90332 18.9616 10.2184 19.0618 10.5479 19.1406L11.1924 21.8047C11.221 21.9694 11.3249 22.0518 11.5039 22.0518ZM12.417 16.3369C11.6579 16.3369 10.9668 16.1543 10.3438 15.7891C9.72786 15.4167 9.2373 14.9225 8.87207 14.3066C8.50684 13.6836 8.32422 12.9961 8.32422 12.2441C8.32422 11.485 8.50684 10.7975 8.87207 10.1816C9.2373 9.56576 9.72786 9.0752 10.3438 8.70996C10.9668 8.33757 11.6579 8.15137 12.417 8.15137C13.1689 8.15137 13.8529 8.33757 14.4688 8.70996C15.0918 9.0752 15.5859 9.56576 15.9512 10.1816C16.3236 10.7975 16.5098 11.485 16.5098 12.2441C16.5098 12.9961 16.3236 13.6836 15.9512 14.3066C15.5859 14.9225 15.0918 15.4167 14.4688 15.7891C13.8529 16.1543 13.1689 16.3369 12.417 16.3369ZM12.417 14.6719C12.861 14.6719 13.2656 14.5645 13.6309 14.3496C14.0033 14.1276 14.2969 13.834 14.5117 13.4688C14.7337 13.0964 14.8447 12.6882 14.8447 12.2441C14.8447 11.793 14.7337 11.3848 14.5117 11.0195C14.2969 10.6543 14.0033 10.3643 13.6309 10.1494C13.2656 9.92741 12.861 9.81641 12.417 9.81641C11.9658 9.81641 11.5576 9.92741 11.1924 10.1494C10.8271 10.3643 10.5335 10.6543 10.3115 11.0195C10.0967 11.3848 9.98926 11.793 9.98926 12.2441C9.98926 12.6882 10.0967 13.0964 10.3115 13.4688C10.5335 13.834 10.8271 14.1276 11.1924 14.3496C11.5576 14.5645 11.9658 14.6719 12.417 14.6719Z" fill="#E31E39"/>
</svg>
