<svg width="19" height="24" viewBox="0 0 19 24" fill="none" xmlns="http://www.w3.org/2000/svg">
<path d="M4.03711 23.7598C2.94141 23.7598 2.11784 23.4805 1.56641 22.9219C1.01497 22.3704 0.739258 21.5433 0.739258 20.4404V4.1123C0.739258 2.98796 1.01497 2.14648 1.56641 1.58789C2.125 1.02214 2.95931 0.739258 4.06934 0.739258H15.4775C16.5876 0.739258 17.4183 1.02214 17.9697 1.58789C18.5283 2.15365 18.8076 2.99512 18.8076 4.1123V16.4336C18.8076 16.9707 18.7074 17.3896 18.5068 17.6904C18.3063 17.9912 18.1058 18.2419 17.9053 18.4424C17.4613 18.8936 17.1891 19.3662 17.0889 19.8604C16.9886 20.3473 17.0352 20.7913 17.2285 21.1924C17.429 21.6006 17.7549 21.8942 18.2061 22.0732C18.3779 22.1305 18.5212 22.2344 18.6357 22.3848C18.7503 22.5423 18.8076 22.7142 18.8076 22.9004C18.8076 23.1367 18.7217 23.3372 18.5498 23.502C18.3851 23.6738 18.1846 23.7598 17.9482 23.7598H4.03711ZM2.46875 17.5508C2.70508 17.4076 2.96647 17.3001 3.25293 17.2285C3.54655 17.1497 3.86882 17.1104 4.21973 17.1104H16.1436C16.7666 17.1104 17.0781 16.806 17.0781 16.1973V4.14453C17.0781 3.60742 16.9349 3.19564 16.6484 2.90918C16.3691 2.61556 15.9502 2.46875 15.3916 2.46875H4.14453C3.5931 2.46875 3.17415 2.61556 2.8877 2.90918C2.6084 3.19564 2.46875 3.60742 2.46875 4.14453V17.5508ZM4.13379 22.0303H15.7783C15.4919 21.5648 15.3307 21.0492 15.2949 20.4834C15.2663 19.9248 15.3773 19.3662 15.6279 18.8076C15.5133 18.8291 15.388 18.8398 15.252 18.8398H4.23047C3.69336 18.8398 3.26367 18.9867 2.94141 19.2803C2.6263 19.5667 2.46875 19.9499 2.46875 20.4297C2.46875 20.9382 2.6084 21.332 2.8877 21.6113C3.17415 21.8906 3.58952 22.0303 4.13379 22.0303ZM3.73633 18.0342V2.0498H5.14355V18.0342H3.73633Z" fill="#E31E39"/>
</svg>
